<svg id="Layer_1" enable-background="new 0 0 512 512" height="512" viewBox="0 0 512 512" width="512" xmlns="http://www.w3.org/2000/svg"><g><path d="m199.926 307.658c-33.828-12.545-68.924-10.739-95.72-7.763l-6.476.719c-4.066.452-7.771 2.544-10.257 5.793-15.828 20.688-23.853 44.255-23.853 70.047 0 28.534 6.344 46.634 24.243 69.168 2.846 3.583 7.17 5.67 11.746 5.67h197.564c4.575 0 8.9-2.088 11.746-5.67 16.63-20.937 22.243-38.138 22.243-68.168 0-19.099-3.877-36.422-11.522-51.489-3.101-6.11-9.949-9.341-16.637-7.853l-1.942.433c-29.759 6.629-63.785 2.965-101.135-10.887zm101.235 69.797c0 20.649-2.477 31.022-11.474 43.838h-182.623c-10.192-14.259-13.444-25.704-13.444-44.838 0-16.988 4.729-32.689 14.071-46.763 23.48-2.598 53.959-4.233 81.803 6.094 38.689 14.349 74.826 19.047 107.602 14.01 2.701 8.364 4.065 17.625 4.065 27.659z"/><path d="m470.559 168.926v-63.226c0-27.922-22.717-50.639-50.639-50.639s-50.639 22.717-50.639 50.639v12.686c0 10.174-8.277 18.451-18.451 18.451s-18.451-8.277-18.451-18.451v-24.793c0-18.562-15.101-33.662-33.662-33.662h-55.936v-23.365c0-8.284-6.716-15-15-15h-61.841c-8.284 0-15 6.716-15 15v25.466h-11.519c-8.284 0-15 6.716-15 15s6.716 15 15 15h11.519v30.716c-16.041 6.424-27.406 22.117-27.406 40.425v37.454c-72.35 29.248-123.534 100.216-123.534 182.924 0 45.002 14.77 87.384 42.714 122.564 2.846 3.583 7.17 5.671 11.746 5.671h285.503c4.575 0 8.9-2.088 11.746-5.67 27.944-35.181 42.714-77.563 42.714-122.565 0-82.708-51.184-153.676-123.535-182.923v-37.454c0-18.574-11.696-34.459-28.105-40.702v-32.541h55.936c2.019 0 3.662 1.643 3.662 3.662v24.793c0 26.716 21.735 48.451 48.451 48.451s48.451-21.735 48.451-48.451v-12.686c0-11.38 9.259-20.639 20.639-20.639s20.639 9.259 20.639 20.639v62.882c-24.605 9.145-42.292 41.069-42.292 80.119 0 46.409 24.979 82.763 56.866 82.763s56.865-36.353 56.865-82.763c0-38.595-17.283-70.214-41.441-79.775zm-289.618-117.36h31.841v22.63c-.012.245-.037.487-.037.735s.025.49.037.735v43.972h-31.841zm183.482 331.985c0 35.767-11.003 69.58-31.889 98.235h-270.645c-20.887-28.655-31.889-62.468-31.889-98.235 0-72.886 46.88-135.019 112.067-157.857.912-.221 1.792-.52 2.631-.899 16.523-5.479 34.176-8.456 52.514-8.456s35.991 2.976 52.514 8.456c.839.379 1.718.679 2.631.899 65.186 22.838 112.066 84.971 112.066 157.857zm-167.212-197.211c-15.006 0-29.622 1.693-43.676 4.883v-28.048c0-7.464 6.072-13.536 13.536-13.536h60.281c7.464 0 13.536 6.072 13.536 13.536v28.048c-14.055-3.191-28.671-4.883-43.677-4.883zm257.922 115.125c-12.682 0-26.866-22.564-26.866-52.763s14.184-52.763 26.866-52.763 26.867 22.564 26.867 52.762-14.185 52.764-26.867 52.764z"/><circle cx="92.011" cy="15.214" r="15"/><circle cx="16.293" cy="43.148" r="15"/><circle cx="72.162" cy="77.699" r="15"/><circle cx="31.782" cy="120.635" r="15"/></g></svg>