<?xml version="1.0" encoding="iso-8859-1"?>
<!-- Generator: Adobe Illustrator 19.0.0, SVG Export Plug-In . SVG Version: 6.00 Build 0)  -->
<svg version="1.1" id="Capa_1" xmlns="http://www.w3.org/2000/svg" xmlns:xlink="http://www.w3.org/1999/xlink" x="0px" y="0px" fill="#3e77aa"
	 viewBox="0 0 512.001 512.001" style="enable-background:new 0 0 512.001 512.001;" xml:space="preserve">
<g>
	<g>
		<path d="M473.581,38.327c-58.477-58.477-163.184-48.97-233.35,21.211c-27.041,27.056-45.908,59.839-54.551,94.79l-45.536,184.163
			l-13.028-13.024L13.281,435.213c-17.62,17.618-17.562,46.1,0,63.633c17.533,17.531,46.084,17.549,63.633,0l113.85-109.747
			l-13.55-13.546l184.687-50.438c33.34-9.111,64.629-27.598,90.469-53.438C522.551,201.496,532.072,96.819,473.581,38.327z
			 M452.37,59.539c7.37,7.37,12.845,15.948,17.45,24.987l-59.872,59.872l-42.437-42.437l59.888-59.888
			C436.434,46.676,445.005,52.174,452.37,59.539z M388.738,165.608l-42.437,42.437l-42.437-42.437l42.437-42.437L388.738,165.608z
			 M395.562,31.489L346.301,80.75l-34.98-34.98C338.054,32.967,366.056,26.803,395.562,31.489z M261.442,80.75
			c7.299-7.299,15.167-13.495,23.183-19.254l40.464,40.464l-42.437,42.437l-40.523-40.523
			C247.936,95.808,254.213,87.984,261.442,80.75z M226.387,130.553l35.056,35.056l-49.27,49.27
			C207.338,184.375,213.782,156.883,226.387,130.553z M169.021,346.685l23.242-93.997c6.412,14.98,15.24,28.678,26.757,40.201
			c12.393,12.393,27.116,21.839,43.334,28.306L169.021,346.685z M240.232,271.678c-7.278-7.282-13.143-15.612-17.789-24.648
			l60.211-60.211l42.436,42.437l-60.161,60.161C255.821,284.783,247.466,278.912,240.232,271.678z M297.159,299.609l49.142-49.142
			l35.103,35.103C356.133,297.68,328.547,304.609,297.159,299.609z M431.159,250.467c-7.22,7.22-15.057,13.488-23.137,19.299
			l-40.51-40.51l42.437-42.437l40.712,40.712C444.919,235.509,438.425,243.201,431.159,250.467z M431.159,165.608l48.886-48.885
			c4.197,26.777-0.236,56.193-13.649,84.122L431.159,165.608z"/>
	</g>
</g>
<g>
	<g>
		<path d="M91.301,0.608c-32.999,0-60,26.999-60,60c0,32.999,27.001,60,60,60c32.999,0,60-27.001,60-60
			C151.301,27.607,124.3,0.608,91.301,0.608z"/>
	</g>
</g>
<g>
</g>
<g>
</g>
<g>
</g>
<g>
</g>
<g>
</g>
<g>
</g>
<g>
</g>
<g>
</g>
<g>
</g>
<g>
</g>
<g>
</g>
<g>
</g>
<g>
</g>
<g>
</g>
<g>
</g>
</svg>
